/* XPM */
static char * image_name[]={
"32 32 55 2",
"  	c #383838",
". 	c #2B2B2B",
"X 	c #303030",
"o 	c #363636",
"O 	c #2E2E2E",
"+ 	c #212121",
"@ 	c #141414",
"# 	c #121212",
"$ 	c #1A1A1A",
"% 	c #292929",
"& 	c #454545",
"* 	c #575757",
"= 	c #696969",
"- 	c #737373",
"; 	c #7D7D7D",
": 	c #616161",
"> 	c #525252",
", 	c #424242",
"< 	c #333333",
"1 	c #1F1F1F",
"2 	c #171717",
"3 	c #262626",
"4 	c #404040",
"5 	c #545454",
"6 	c #1C1C1C",
"7 	c #0A0A0A",
"8 	c #030303",
"9 	c #000000",
"0 	c #242424",
"q 	c #474747",
"w 	c #595959",
"e 	c #6E6E6E",
"r 	c #0D0D0D",
"t 	c #080808",
"y 	c #0F0F0F",
"u 	c #000001",
"i 	c #5E5E5E",
"p 	c #6B6B6B",
"a 	c #3B3B3B",
"s 	c #4D4D4D",
"d 	c #050505",
"f 	c #5C5C5C",
"g 	c #636363",
"h 	c #3D3D3D",
"j 	c #4A4A4A",
"k 	c #4F4F4F",
"l 	c #666666",
"z 	c #757575",
"x 	c #787878",
"c 	c #707070",
"v 	c #7A7A7A",
"b 	c #828282",
"n 	c #858585",
"m 	c #8A8A8A",
"M 	c #7F7F7F",
"  . X o O + @ # # # $ % o & * = - ; - : > , < % 1 2 $ 1 3 < 4 5 ",
"< 3 . . 6 7 8 9 9 9 8 @ 0 < q w : e = * & < 0 2 r t 7 y $ 0 < & ",
", o   O 6 r u 9 9 9 8 # 0 o q * i = p * q o % 6 # r y @ 1 . a s ",
"q & & < 0 @ d 9 9 u t 2 0   q 5 f g = f s a O 0 $ 2 2 1 3 < 4 5 ",
"4 & & a . 6 # t 8 t # 1 . a s 5 * * i : 5 & o . 3 0 0 % < h s w ",
"a a a a o % 6 @ # @ 6 3 < & s j j s > f f k ,   < X < o h j w : ",
"a o o o   o . 0 + + % X h q & h h & j > f * s & 4 h , & k * : = ",
"a o < X < a a < X < o 4 q , a o o a 4 j > s , h a a 4 & k w * : ",
"4 o X O <   & & , , j s q h o < X o a & j h < . % . X   & s j * ",
"& a < < o a & j j k 5 5 & a < O O X   & h X 0 6 $ 6 + O a , 4 s ",
"s 4 a a a h a   a , s k &   < O O X   4 < 0 2 y r y 2 0 < a o , ",
"w j & 4 a X % 3 % X a q j h o X X < h h . $ r 8 u 8 r 6 . < O o ",
"w 5 j   . 1 $ 2 2 1 . a q & a o o a , a 3 @ d 9 9 9 t 2 % O + % ",
"s k & X + @ t d t # 1 O , s & h 4 & q   0 @ d 9 9 9 t $ % 0 @ 1 ",
"& q h . $ 7 u 9 u d @ % a s k s j k s a % $ 7 8 8 d y + . 6 r 2 ",
"h , h % 2 d u 9 9 u y 0 o s f * * f 5 , X + @ r r # $ % . $ r 2 ",
"a 4 4 . $ t 9 u 9 u y 0 o s : = l = f j a O 0 6 6 + % o O 1 # $ ",
"a 4 & < 1 y d 9 u t 2 % a k l z x x = * q a O % 0 3 O o o 0 $ 0 ",
"4 , s h . 1 # r r 2 + X 4 5 : e x x = 5 , < 0 $ 2 2 1 .   < 3 X ",
"q j 5 j a O 0 6 $ $ 1 % o & k * l c g j   0 2 7 d 7 @ 1 < h   4 ",
"> 5 : 5 , X + @ 7 t r $ % < a & 5 g f & < 1 y 8 9 u r $ . 4 j s ",
"i : g > a % 2 t 9 9 8 r $ 1 % o & * f & X 1 r u u u r $ O 4 j j ",
"i i : k a 3 @ 8 9 9 9 t 7 r $ %   s f j < 0 # t 8 t # 1 < & & 4 ",
"5 k f > a % 2 d 9 9 9 8 9 u r 6 X & f > h O 1 @ # @ 1 . a s & h ",
"s q 5 * , O 1 r d 8 8 9 9 9 d $ O , w f q   O 0 0 3 O   q 5 & 4 ",
"& 4 s * s a % 1 2 # t 9 9 9 t $ O , f l * j h   o   4 j * f j & ",
"& h s w w j a O % 1 y 8 8 d y + < j i - = f > s j s 5 f = l > s ",
"q , s f l f s & a O 1 @ # 2 1 O h 5 l v v - = g : g = c z l k j ",
"s j 5 g e p : w s a X % 0 % X h s w l e e p e c z x b n x i s & ",
"w 5 i : i i : l f k & h h h & j s 5 f f * 5 * i = z b m z : s & ",
": f * s j j s * : : * k j & & q j > k & 4 h , j 5 : c b v l k q ",
"c i > j q & j 5 : = f k j & & j > * j h     a , k f e M m z l i "
};
